{
  "accessors": [
    {
      "bufferView": 1,
      "componentType": 5126,
      "count": 63726,
      "max": [
        5.889153957366943,
        75.15538787841797,
        10.596858024597168
      ],
      "min": [
        -21.160676956176758,
        60.670310974121094,
        -14.387345314025879
      ],
      "type": "VEC3"
    },
    {
      "bufferView": 1,
      "byteOffset": 764712,
      "componentType": 5126,
      "count": 63726,
      "max": [
        0.9997776746749878,
        0.9999901056289673,
        0.999882698059082
      ],
      "min": [
        -0.999871015548706,
        -0.9999786615371704,
        -0.9999775290489197
      ],
      "type": "VEC3"
    },
    {
      "bufferView": 0,
      "componentType": 5125,
      "count": 63726,
      "type": "SCALAR"
    },
    {
      "bufferView": 1,
      "byteOffset": 1529424,
      "componentType": 5126,
      "count": 65532,
      "max": [
        43.56947326660156,
        11.069056510925293,
        37.330360412597656
      ],
      "min": [
        -29.464290618896484,
        -113.30389404296875,
        -30.797866821289063
      ],
      "type": "VEC3"
    },
    {
      "bufferView": 1,
      "byteOffset": 2315808,
      "componentType": 5126,
      "count": 65532,
      "max": [
        0.9999997615814209,
        0.9998559355735779,
        0.999957799911499
      ],
      "min": [
        -0.9999843835830688,
        -1.0,
        -0.9999936819076538
      ],
      "type": "VEC3"
    },
    {
      "bufferView": 0,
      "byteOffset": 254904,
      "componentType": 5125,
      "count": 65532,
      "type": "SCALAR"
    },
    {
      "bufferView": 1,
      "byteOffset": 3102192,
      "componentType": 5126,
      "count": 65532,
      "max": [
        43.56947326660156,
        11.066511154174805,
        37.330360412597656
      ],
      "min": [
        -29.464290618896484,
        -113.30389404296875,
        -30.789207458496094
      ],
      "type": "VEC3"
    },
    {
      "bufferView": 1,
      "byteOffset": 3888576,
      "componentType": 5126,
      "count": 65532,
      "max": [
        0.999912440776825,
        0.9998330473899841,
        0.9999549388885498
      ],
      "min": [
        -0.9999990463256836,
        -1.0,
        -0.9998814463615417
      ],
      "type": "VEC3"
    },
    {
      "bufferView": 0,
      "byteOffset": 517032,
      "componentType": 5125,
      "count": 65532,
      "type": "SCALAR"
    },
    {
      "bufferView": 1,
      "byteOffset": 4674960,
      "componentType": 5126,
      "count": 65532,
      "max": [
        43.56947326660156,
        11.069056510925293,
        37.330360412597656
      ],
      "min": [
        -29.464290618896484,
        -113.30386352539063,
        -30.797866821289063
      ],
      "type": "VEC3"
    },
    {
      "bufferView": 1,
      "byteOffset": 5461344,
      "componentType": 5126,
      "count": 65532,
      "max": [
        0.999954879283905,
        0.9999379515647888,
        0.9999690055847168
      ],
      "min": [
        -0.9999507665634155,
        -1.0,
        -0.9997817873954773
      ],
      "type": "VEC3"
    },
    {
      "bufferView": 0,
      "byteOffset": 779160,
      "componentType": 5125,
      "count": 65532,
      "type": "SCALAR"
    },
    {
      "bufferView": 1,
      "byteOffset": 6247728,
      "componentType": 5126,
      "count": 65532,
      "max": [
        43.56947326660156,
        11.069056510925293,
        37.28287124633789
      ],
      "min": [
        -29.44296646118164,
        -113.30389404296875,
        -30.797866821289063
      ],
      "type": "VEC3"
    },
    {
      "bufferView": 1,
      "byteOffset": 7034112,
      "componentType": 5126,
      "count": 65532,
      "max": [
        0.9999942183494568,
        0.9999361634254456,
        0.9999871253967285
      ],
      "min": [
        -0.9999234080314636,
        -1.0,
        -0.9993515014648438
      ],
      "type": "VEC3"
    },
    {
      "bufferView": 0,
      "byteOffset": 1041288,
      "componentType": 5125,
      "count": 65532,
      "type": "SCALAR"
    },
    {
      "bufferView": 1,
      "byteOffset": 7820496,
      "componentType": 5126,
      "count": 8754,
      "max": [
        43.52938461303711,
        10.666259765625,
        37.2829475402832
      ],
      "min": [
        -28.890270233154297,
        -113.30389404296875,
        -29.59992218017578
      ],
      "type": "VEC3"
    },
    {
      "bufferView": 1,
      "byteOffset": 7925544,
      "componentType": 5126,
      "count": 8754,
      "max": [
        0.9998560547828674,
        0.9996178150177002,
        0.999762237071991
      ],
      "min": [
        -0.999829113483429,
        -0.9999993443489075,
        -0.9983013868331909
      ],
      "type": "VEC3"
    },
    {
      "bufferView": 0,
      "byteOffset": 1303416,
      "componentType": 5125,
      "count": 8754,
      "type": "SCALAR"
    },
    {
      "bufferView": 1,
      "byteOffset": 8030592,
      "componentType": 5126,
      "count": 65532,
      "max": [
        41.798465728759766,
        125.15830993652344,
        23.647357940673828
      ],
      "min": [
        -56.20961380004883,
        6.643681049346924,
        -30.56501007080078
      ],
      "type": "VEC3"
    },
    {
      "bufferView": 1,
      "byteOffset": 8816976,
      "componentType": 5126,
      "count": 65532,
      "max": [
        0.999993085861206,
        0.9999924302101135,
        0.9999845623970032
      ],
      "min": [
        -0.9999849796295166,
        -0.9999343752861023,
        -0.9999838471412659
      ],
      "type": "VEC3"
    },
    {
      "bufferView": 0,
      "byteOffset": 1338432,
      "componentType": 5125,
      "count": 65532,
      "type": "SCALAR"
    },
    {
      "bufferView": 1,
      "byteOffset": 9603360,
      "componentType": 5126,
      "count": 65532,
      "max": [
        41.798465728759766,
        125.16838836669922,
        23.647357940673828
      ],
      "min": [
        -56.20961380004883,
        6.643681049346924,
        -30.61353874206543
      ],
      "type": "VEC3"
    },
    {
      "bufferView": 1,
      "byteOffset": 10389744,
      "componentType": 5126,
      "count": 65532,
      "max": [
        0.9999468326568604,
        0.999876856803894,
        0.9999850392341614
      ],
      "min": [
        -0.9999764561653137,
        -0.9996903538703918,
        -0.9999262690544128
      ],
      "type": "VEC3"
    },
    {
      "bufferView": 0,
      "byteOffset": 1600560,
      "componentType": 5125,
      "count": 65532,
      "type": "SCALAR"
    },
    {
      "bufferView": 1,
      "byteOffset": 11176128,
      "componentType": 5126,
      "count": 65532,
      "max": [
        41.798465728759766,
        125.122314453125,
        23.647357940673828
      ],
      "min": [
        -56.20961380004883,
        6.6558427810668945,
        -30.61353874206543
      ],
      "type": "VEC3"
    },
    {
      "bufferView": 1,
      "byteOffset": 11962512,
      "componentType": 5126,
      "count": 65532,
      "max": [
        0.9999911785125732,
        0.9999526739120483,
        0.9999693036079407
      ],
      "min": [
        -0.9999264478683472,
        -0.9999600648880005,
        -0.999886155128479
      ],
      "type": "VEC3"
    },
    {
      "bufferView": 0,
      "byteOffset": 1862688,
      "componentType": 5125,
      "count": 65532,
      "type": "SCALAR"
    },
    {
      "bufferView": 1,
      "byteOffset": 12748896,
      "componentType": 5126,
      "count": 65532,
      "max": [
        41.784034729003906,
        125.16838836669922,
        23.647357940673828
      ],
      "min": [
        -56.20961380004883,
        6.643681049346924,
        -30.61353874206543
      ],
      "type": "VEC3"
    },
    {
      "bufferView": 1,
      "byteOffset": 13535280,
      "componentType": 5126,
      "count": 65532,
      "max": [
        0.9999639987945557,
        0.9999803900718689,
        0.9999945163726807
      ],
      "min": [
        -0.9999687671661377,
        -0.9998587965965271,
        -0.9997563362121582
      ],
      "type": "VEC3"
    },
    {
      "bufferView": 0,
      "byteOffset": 2124816,
      "componentType": 5125,
      "count": 65532,
      "type": "SCALAR"
    },
    {
      "bufferView": 1,
      "byteOffset": 14321664,
      "componentType": 5126,
      "count": 20760,
      "max": [
        41.784034729003906,
        125.08834075927734,
        23.6413516998291
      ],
      "min": [
        -56.140968322753906,
        6.673396587371826,
        -30.61353874206543
      ],
      "type": "VEC3"
    },
    {
      "bufferView": 1,
      "byteOffset": 14570784,
      "componentType": 5126,
      "count": 20760,
      "max": [
        0.999819278717041,
        0.9998195171356201,
        0.9997733235359192
      ],
      "min": [
        -0.9996144771575928,
        -0.9987047910690308,
        -0.9999287128448486
      ],
      "type": "VEC3"
    },
    {
      "bufferView": 0,
      "byteOffset": 2386944,
      "componentType": 5125,
      "count": 20760,
      "type": "SCALAR"
    }
  ],
  "asset": {
    "extras": {
      "author": "Andy woodhead (https://sketchfab.com/Andywoodhead)",
      "license": "CC-BY-4.0 (http://creativecommons.org/licenses/by/4.0/)",
      "source": "https://sketchfab.com/3d-models/cricket-pull-shot-5695f34a27524587b7fd8014e8ee8546",
      "title": "Cricket Pull shot"
    },
    "generator": "Sketchfab-11.36.1",
    "version": "2.0"
  },
  "bufferViews": [
    {
      "buffer": 0,
      "byteLength": 2469984,
      "name": "floatBufferViews",
      "target": 34963
    },
    {
      "buffer": 0,
      "byteLength": 14819904,
      "byteOffset": 2469984,
      "byteStride": 12,
      "name": "floatBufferViews",
      "target": 34962
    }
  ],
  "buffers": [
    {
      "byteLength": 17289888,
      "uri": "scene.bin"
    }
  ],
  "materials": [
    {
      "doubleSided": true,
      "name": "cricket_pullshot_0043_FBX_only",
      "pbrMetallicRoughness": {
        "baseColorFactor": [
          0.5,
          0.5,
          0.5,
          1.0
        ],
        "metallicFactor": 0.0
      }
    },
    {
      "doubleSided": true,
      "name": "Legs",
      "pbrMetallicRoughness": {
        "baseColorFactor": [
          0.5,
          0.5,
          0.5,
          1.0
        ],
        "metallicFactor": 0.0
      }
    },
    {
      "doubleSided": true,
      "name": "Upper_body",
      "pbrMetallicRoughness": {
        "baseColorFactor": [
          0.5,
          0.5,
          0.5,
          1.0
        ],
        "metallicFactor": 0.0
      }
    }
  ],
  "meshes": [
    {
      "name": "cricket_pullshot_0043_FBX_only_cricket_pullshot_0043_FBX_only_0",
      "primitives": [
        {
          "attributes": {
            "NORMAL": 1,
            "POSITION": 0
          },
          "indices": 2,
          "material": 0,
          "mode": 4
        }
      ]
    },
    {
      "name": "Legs_Legs_0",
      "primitives": [
        {
          "attributes": {
            "NORMAL": 4,
            "POSITION": 3
          },
          "indices": 5,
          "material": 1,
          "mode": 4
        }
      ]
    },
    {
      "name": "Legs_Legs_0",
      "primitives": [
        {
          "attributes": {
            "NORMAL": 7,
            "POSITION": 6
          },
          "indices": 8,
          "material": 1,
          "mode": 4
        }
      ]
    },
    {
      "name": "Legs_Legs_0",
      "primitives": [
        {
          "attributes": {
            "NORMAL": 10,
            "POSITION": 9
          },
          "indices": 11,
          "material": 1,
          "mode": 4
        }
      ]
    },
    {
      "name": "Legs_Legs_0",
      "primitives": [
        {
          "attributes": {
            "NORMAL": 13,
            "POSITION": 12
          },
          "indices": 14,
          "material": 1,
          "mode": 4
        }
      ]
    },
    {
      "name": "Legs_Legs_0",
      "primitives": [
        {
          "attributes": {
            "NORMAL": 16,
            "POSITION": 15
          },
          "indices": 17,
          "material": 1,
          "mode": 4
        }
      ]
    },
    {
      "name": "Upper_body_Upper_body_0",
      "primitives": [
        {
          "attributes": {
            "NORMAL": 19,
            "POSITION": 18
          },
          "indices": 20,
          "material": 2,
          "mode": 4
        }
      ]
    },
    {
      "name": "Upper_body_Upper_body_0",
      "primitives": [
        {
          "attributes": {
            "NORMAL": 22,
            "POSITION": 21
          },
          "indices": 23,
          "material": 2,
          "mode": 4
        }
      ]
    },
    {
      "name": "Upper_body_Upper_body_0",
      "primitives": [
        {
          "attributes": {
            "NORMAL": 25,
            "POSITION": 24
          },
          "indices": 26,
          "material": 2,
          "mode": 4
        }
      ]
    },
    {
      "name": "Upper_body_Upper_body_0",
      "primitives": [
        {
          "attributes": {
            "NORMAL": 28,
            "POSITION": 27
          },
          "indices": 29,
          "material": 2,
          "mode": 4
        }
      ]
    },
    {
      "name": "Upper_body_Upper_body_0",
      "primitives": [
        {
          "attributes": {
            "NORMAL": 31,
            "POSITION": 30
          },
          "indices": 32,
          "material": 2,
          "mode": 4
        }
      ]
    }
  ],
  "nodes": [
    {
      "children": [
        1
      ],
      "matrix": [
        1.0,
        0.0,
        0.0,
        0.0,
        0.0,
        2.220446049250313e-16,
        -1.0,
        0.0,
        0.0,
        1.0,
        2.220446049250313e-16,
        0.0,
        0.0,
        0.0,
        0.0,
        1.0
      ],
      "name": "Sketchfab_model"
    },
    {
      "children": [
        2
      ],
      "matrix": [
        1.0,
        0.0,
        0.0,
        0.0,
        0.0,
        0.0,
        1.0,
        0.0,
        0.0,
        -1.0,
        0.0,
        0.0,
        0.0,
        0.0,
        0.0,
        1.0
      ],
      "name": "CricketPullshot.fbx"
    },
    {
      "children": [
        3,
        5,
        11
      ],
      "name": "RootNode"
    },
    {
      "children": [
        4
      ],
      "name": "cricket_pullshot_0043_FBX_only"
    },
    {
      "mesh": 0,
      "name": "cricket_pullshot_0043_FBX_only_cricket_pullshot_0043_FBX_only_0"
    },
    {
      "children": [
        6,
        7,
        8,
        9,
        10
      ],
      "name": "Legs"
    },
    {
      "mesh": 1,
      "name": "Legs_Legs_0"
    },
    {
      "mesh": 2,
      "name": "Legs_Legs_0"
    },
    {
      "mesh": 3,
      "name": "Legs_Legs_0"
    },
    {
      "mesh": 4,
      "name": "Legs_Legs_0"
    },
    {
      "mesh": 5,
      "name": "Legs_Legs_0"
    },
    {
      "children": [
        12,
        13,
        14,
        15,
        16
      ],
      "name": "Upper_body"
    },
    {
      "mesh": 6,
      "name": "Upper_body_Upper_body_0"
    },
    {
      "mesh": 7,
      "name": "Upper_body_Upper_body_0"
    },
    {
      "mesh": 8,
      "name": "Upper_body_Upper_body_0"
    },
    {
      "mesh": 9,
      "name": "Upper_body_Upper_body_0"
    },
    {
      "mesh": 10,
      "name": "Upper_body_Upper_body_0"
    }
  ],
  "scene": 0,
  "scenes": [
    {
      "name": "Sketchfab_Scene",
      "nodes": [
        0
      ]
    }
  ]
}
